<?xml version="1.0" encoding="UTF-8" standalone="no"?>
<svg xmlns="http://www.w3.org/2000/svg" xmlns:xlink="http://www.w3.org/1999/xlink" viewBox="0 0 36.0 36.0">
  <path d="M26.2,18.2l-5.6,5.2 7.9,6.6V16z" fill="#d80027"/>
  <path d="M7.5,16v14l7.9,-6.6z" fill="#ff5023"/>
  <path d="M15.4,23.4L7.5,30H18v-4.1z" fill="#d80027"/>
  <path d="M18,25.9V30h10.5l-7.9,-6.6z" fill="#a2001d"/>
  <path d="M9.8,13.7L7.5,16h2.3z" fill="#ff5023"/>
  <path d="M28.5,16l-2.3,-2.3V16z" fill="#ff5023"/>
  <path d="M18,6l-3.7,3.5h7.4z" fill="#ff5023"/>
  <path d="M26.2,18.2l2.3,-2.2h-2.3z" fill="#a2001d"/>
  <path d="M18,25.9l-8.2,-7.7V16H7.5l7.9,7.4z" fill="#a2001d"/>
  <path d="M9.8,18.2l8.2,7.7 2.6,-2.5 5.6,-5.3L26.2,9.5L9.7,9.5v6.4l0.1,2.3zM12.7,16.5h10.5v1.8L12.7,18.3v-1.8zM12.7,14.8L12.7,13h10.5v1.8L12.7,14.8z" fill="#dedde0"/>
  <path d="M12.7,13h10.5v1.8H12.7z" fill="#fff"/>
  <path d="M12.7,16.5h10.5v1.8H12.7z" fill="#fff"/>
</svg>
