<?xml version="1.0" encoding="UTF-8" standalone="no"?>
<svg xmlns="http://www.w3.org/2000/svg" xmlns:xlink="http://www.w3.org/1999/xlink" viewBox="0 0 36.0 36.0">
  <path d="M7.3,18.6c0,-0.8 0.4,-1.7 0.7,-2.4 0.2,-0.7 0,-1.6 0.4,-2.2 0.4,-0.6 1.3,-0.8 1.8,-1.4 0.5,-0.5 0.8,-1.4 1.4,-1.8 0.6,-0.4 1.5,-0.2 2.2,-0.5 0.7,-0.3 1.2,-1 2,-1.1 0.7,-0.1 1.5,0.4 2.2,0.4s1.5,-0.5 2.2,-0.4c0.7,0.1 1.3,0.9 2,1.1 0.7,0.3 1.6,0.1 2.2,0.5 0.6,0.4 0.9,1.3 1.4,1.8 0.5,0.5 1.4,0.7 1.8,1.4 0.4,0.6 0.2,1.5 0.4,2.2 0.2,0.7 0.7,1.6 0.7,2.4 -1.5,0.4 -1.6,-0.6 -3.1,-0.6s-1.5,0.6 -3.1,0.6c-1.5,0 -1.5,-0.6 -3.1,-0.6 -1.5,0 -1.5,0.6 -3.1,0.6 -1.5,0 -1.5,-0.6 -3.1,-0.6 -1.5,0 -1.5,0.4 -3,0.6 -1.4,0.2 -1.5,0.4 -2.9,0z" fill="#b3e59f"/>
  <path d="M28.1,16.2c-0.2,-0.7 0,-1.6 -0.4,-2.2 -0.4,-0.6 -1.3,-0.8 -1.8,-1.4 -0.5,-0.5 -0.8,-1.4 -1.4,-1.8 -0.6,-0.4 -1.5,-0.2 -2.2,-0.5 -0.7,-0.3 -1.2,-1 -2,-1.1 -0.7,-0.1 -1.5,0.4 -2.2,0.4 -0.8,0 -1.5,-0.5 -2.2,-0.4 -0.5,0.1 -0.9,0.4 -1.2,0.7 0.7,0 1.4,0.4 2.1,0.4 0.8,0 1.5,-0.5 2.2,-0.4 0.7,0.1 1.3,0.9 2,1.1 0.7,0.3 1.6,0.1 2.2,0.5 0.6,0.4 0.9,1.3 1.4,1.8 0.5,0.5 1.4,0.7 1.8,1.4 0.4,0.6 0.2,1.5 0.4,2.2 0.1,0.5 0.4,1 0.5,1.5 0.4,0.2 0.8,0.3 1.5,0.1 -0.1,-0.6 -0.5,-1.6 -0.7,-2.3z" fill="#95d6a4"/>
  <path d="M10.6,18m-3.5,0a3.5,3.5 0,1 1,7 0a3.5,3.5 0,1 1,-7 0" fill="#e17f85"/>
  <path d="M25.4,18m-3.5,0a3.5,3.5 0,1 1,7 0a3.5,3.5 0,1 1,-7 0" fill="#e17f85"/>
  <path d="M25.4,14.4c-0.2,0 -0.5,0 -0.7,0.1 1.6,0.3 2.8,1.7 2.8,3.4s-1.2,3.1 -2.8,3.4c0.2,0 0.5,0.1 0.7,0.1 1.9,0 3.5,-1.6 3.5,-3.5s-1.5,-3.5 -3.5,-3.5z" fill="#de646e"/>
  <path d="M23.8,15.5c-0.4,0 -0.8,-0.1 -1.2,-0.2 -1,-0.4 -1.5,-1.1 -1.7,-1.5 -0.2,-0.3 -0.1,-0.8 0.3,-1 0.3,-0.2 0.8,-0.1 1,0.3 0.1,0.2 0.4,0.6 1,0.9 0.9,0.3 1.6,-0.1 1.7,-0.2 0.3,-0.2 0.8,-0.1 1,0.2s0.1,0.8 -0.2,1c-0.3,0.1 -1,0.5 -1.9,0.5zM28.7,22.4c0.3,-0.3 0.5,-0.6 0.7,-1 0.4,-0.9 0.3,-1.8 0.1,-2.2 -0.1,-0.4 -0.5,-0.6 -0.9,-0.5 -0.4,0.1 -0.6,0.5 -0.5,0.9 0.1,0.3 0.2,0.8 -0.1,1.3 -0.4,0.8 -1.3,1.1 -1.4,1.1 -0.4,0.1 -0.6,0.5 -0.5,0.8 0.1,0.4 0.5,0.6 0.8,0.5 0.4,0 1.2,-0.2 1.8,-0.9zM7.3,22.1c-0.3,-0.3 -0.5,-0.6 -0.7,-1 -0.4,-0.9 -0.3,-1.8 -0.1,-2.2 0.1,-0.4 0.5,-0.6 0.9,-0.5 0.4,0.1 0.6,0.5 0.5,0.9 -0.1,0.3 -0.2,0.8 0.1,1.3 0.4,0.8 1.3,1.1 1.4,1.1 0.4,0.1 0.6,0.5 0.5,0.8 -0.1,0.4 -0.5,0.6 -0.8,0.5 -0.4,0 -1.2,-0.2 -1.8,-0.9zM13.4,16.4c-0.4,-0.1 -0.7,-0.2 -1.1,-0.4 -0.9,-0.6 -1.2,-1.4 -1.3,-1.8 -0.1,-0.4 0.1,-0.8 0.5,-0.9 0.4,-0.1 0.8,0.1 0.9,0.5 0.1,0.3 0.3,0.7 0.8,1 0.8,0.5 1.6,0.2 1.7,0.2 0.4,-0.1 0.8,0.1 0.9,0.4s-0.1,0.8 -0.4,0.9c-0.3,0 -1.1,0.2 -2,0.1z" fill="#c6855b"/>
  <path d="M18,15.1m-3.5,0a3.5,3.5 0,1 1,7 0a3.5,3.5 0,1 1,-7 0" fill="#e17f85"/>
  <path d="M18,11.6c-0.2,0 -0.5,0 -0.7,0.1 1.6,0.3 2.8,1.7 2.8,3.4s-1.2,3.1 -2.8,3.4c0.2,0 0.5,0.1 0.7,0.1 1.9,0 3.5,-1.6 3.5,-3.5s-1.6,-3.5 -3.5,-3.5z" fill="#de646e"/>
  <path d="M28.5,26.7h-21c-0.7,0 -1.2,-0.5 -1.2,-1.2 0,-6.3 5.1,-11.4 11.4,-11.4h0.5c6.3,0 11.4,5.1 11.4,11.4 0,0.7 -0.5,1.2 -1.1,1.2z" fill="#f2d59c"/>
  <path d="M18.2,14.1h-1c6.1,0.2 10.9,5.3 10.9,11.4 0,0.7 -0.5,1.2 -1.2,1.2h1.4c0.7,0 1.2,-0.5 1.2,-1.2 0.1,-6.3 -5,-11.4 -11.3,-11.4z" fill="#ecc372"/>
  <path d="M11.7,24.3c0.2,0 0.4,-0.2 0.3,-0.5 -0.1,-0.2 0,-0.4 0.1,-0.6 0.1,-0.2 0.3,-0.3 0.5,-0.4 0.2,-0.1 0.3,-0.3 0.2,-0.4 -0.1,-0.2 -0.3,-0.3 -0.4,-0.2 -0.4,0.1 -0.7,0.4 -0.9,0.7 -0.2,0.4 -0.2,0.8 -0.1,1.1 0,0.2 0.2,0.3 0.3,0.3zM9.7,23.7c0.2,-0.1 0.3,-0.3 0.2,-0.4 0,-0.2 -0.2,-0.3 -0.4,-0.3 -0.4,0.1 -0.7,0.4 -0.9,0.7 -0.2,0.4 -0.2,0.8 -0.1,1.1 0,0.2 0.2,0.2 0.3,0.2 0.2,0 0.4,-0.2 0.3,-0.5 -0.1,-0.2 0,-0.4 0.1,-0.6 0.2,0 0.3,-0.1 0.5,-0.2zM11.7,20c0.2,-0.1 0.3,-0.3 0.2,-0.4 -0.1,-0.2 -0.3,-0.3 -0.4,-0.2 -0.8,0.2 -1.2,1.1 -1,1.9 0,0.2 0.2,0.2 0.3,0.2 0.2,0 0.4,-0.2 0.3,-0.5 0,-0.4 0.2,-0.9 0.6,-1zM29.5,22c0.1,-0.1 0.2,-0.3 0.2,-0.5 0.5,-1 0.3,-2 0.1,-2.5 -0.1,-0.3 -0.3,-0.5 -0.6,-0.7 0.1,-1.1 -0.2,-2.2 -0.9,-3 0,-0.5 0,-1.1 -0.3,-1.6 -0.3,-0.4 -0.7,-0.7 -1.1,-0.9 -0.3,-0.2 -0.5,-0.3 -0.7,-0.5 -0.2,-0.2 -0.3,-0.4 -0.5,-0.7 -0.3,-0.4 -0.5,-0.9 -1,-1.1 -0.4,-0.3 -0.9,-0.3 -1.4,-0.3 -0.3,0 -0.7,-0.1 -0.9,-0.2 -0.2,-0.1 -0.5,-0.3 -0.8,-0.5 -0.4,-0.3 -0.8,-0.6 -1.3,-0.7 -0.5,-0.1 -0.9,0 -1.4,0.2 -0.3,0.1 -0.6,0.2 -0.9,0.2s-0.6,-0.1 -0.9,-0.2c-0.4,-0.1 -0.9,-0.3 -1.4,-0.2 -0.5,0.1 -0.9,0.4 -1.3,0.7 -0.3,0.2 -0.5,0.4 -0.8,0.5 -0.3,0.1 -0.6,0.1 -0.9,0.2 -0.5,0 -1,0.1 -1.4,0.3 -0.4,0.3 -0.7,0.7 -1,1.1 -0.2,0.3 -0.3,0.5 -0.5,0.7 -0.2,0.2 -0.5,0.3 -0.7,0.5 -0.4,0.2 -0.9,0.5 -1.1,0.9 -0.3,0.5 -0.3,1 -0.3,1.6 -0.6,0.7 -1,1.7 -1,2.7 -0.3,0.1 -0.5,0.4 -0.6,0.7 -0.1,0.5 -0.3,1.4 0.1,2.5l0.3,0.6C6.2,23 6,24.3 6,25.6c0,0.9 0.7,1.5 1.5,1.5L10,27.1c0.2,0 0.4,-0.2 0.4,-0.4s-0.2,-0.4 -0.4,-0.4L7.5,26.3c-0.5,0 -0.8,-0.4 -0.8,-0.8 0,-3.1 1.1,-5.7 3.2,-7.8 2.4,-2.4 4.9,-3.2 8.3,-3.2 2.9,0 5.7,1.1 7.8,3.2 2.1,2.1 3.2,4.8 3.2,7.8 0,0.5 -0.4,0.8 -0.8,0.8L11.7,26.3c-0.2,0 -0.4,0.2 -0.4,0.4s0.2,0.4 0.4,0.4h16.8c0.9,0 1.5,-0.7 1.5,-1.5 0,-1.3 -0.2,-2.4 -0.5,-3.6zM7.5,19.2c-0.1,0.2 -0.1,0.5 -0.1,0.8 -0.2,0.3 -0.3,0.7 -0.5,1 -0.3,-0.8 -0.2,-1.6 -0.1,-2 0.1,-0.2 0.3,-0.3 0.4,-0.2 0.2,0 0.4,0.2 0.3,0.4zM9.4,17.2c-0.5,0.5 -0.9,1 -1.3,1.5 -0.1,-0.3 -0.4,-0.6 -0.8,-0.7 -0.1,-1.9 1.6,-3.4 3.4,-3.3 0.1,0.3 0.3,0.6 0.6,0.8 -0.6,0.6 -1.2,1.1 -1.9,1.7zM12,15.3c-0.5,-0.5 -0.7,-1 -0.8,-1.3 -0.1,-0.2 0,-0.4 0.2,-0.4 0.2,-0.1 0.4,0.1 0.4,0.2 0.1,0.3 0.3,0.8 0.8,1.1 -0.1,0.1 -0.3,0.2 -0.6,0.4zM19.1,12.2c0.9,0.3 1.6,1 1.9,1.9 -0.9,-0.2 -1.8,-0.3 -2.8,-0.3 -1.1,0 -2.2,0.1 -3.2,0.3 0.4,-1.1 1.4,-2 2.7,-2.1 0.2,0 0.3,-0.2 0.3,-0.4s-0.2,-0.3 -0.4,-0.3c-1.7,0.2 -3,1.4 -3.4,3 -0.2,0.1 -0.5,0.2 -0.7,0.3 -0.1,0 -0.2,-0.1 -0.3,-0.1 -0.4,-0.3 -0.6,-0.6 -0.6,-0.8 -0.2,-0.5 -0.8,-0.9 -1.3,-0.7 -0.5,0.2 -0.8,0.7 -0.7,1.2 -0.8,0 -1.5,0.2 -2.1,0.6 0,-0.2 0.1,-0.4 0.2,-0.5 0.2,-0.3 0.5,-0.5 0.9,-0.7l0.9,-0.6c0.3,-0.2 0.4,-0.6 0.6,-0.9 0.2,-0.4 0.4,-0.7 0.7,-0.9 0.3,-0.2 0.7,-0.2 1.1,-0.2 0.4,0 0.7,-0.1 1.1,-0.2 0.3,-0.1 0.6,-0.3 0.9,-0.6 0.3,-0.2 0.7,-0.5 1,-0.5 0.3,-0.1 0.7,0.1 1.1,0.2 0.2,0 0.6,0.1 1,0.1s0.8,-0.1 1.1,-0.2c0.4,-0.1 0.8,-0.2 1.1,-0.2 0.3,0.1 0.7,0.3 1,0.5l0.9,0.6c0.4,0.1 0.7,0.2 1.1,0.2 0.4,0 0.8,0.1 1.1,0.2 0.3,0.2 0.5,0.5 0.7,0.9l0.6,0.9c0.3,0.3 0.6,0.4 0.9,0.6 0.4,0.2 0.7,0.4 0.9,0.7 0.1,0.2 0.1,0.3 0.2,0.5 -0.4,-0.3 -0.8,-0.5 -1.3,-0.6 0,-0.1 -0.1,-0.2 -0.1,-0.3 -0.3,-0.5 -1,-0.6 -1.5,-0.3 -0.1,0 -0.7,0.4 -1.4,0.2 -0.4,-0.2 -0.7,-0.5 -0.8,-0.7 -0.3,-0.6 -1,-0.7 -1.6,-0.3 -0.4,-0.5 -0.9,-0.9 -1.6,-1.1 -0.2,-0.1 -0.4,0 -0.5,0.2 0.1,0.1 0.1,0.3 0.3,0.4zM21.8,14.3c-0.1,-0.4 -0.2,-0.8 -0.4,-1.1 0.2,-0.1 0.4,-0.1 0.5,0.1 0.1,0.3 0.5,0.8 1.1,1 1,0.4 1.9,-0.1 2,-0.2 0.2,-0.1 0.4,-0.1 0.5,0.1 0.1,0.2 0,0.4 -0.1,0.5 -0.1,0.1 -0.8,0.5 -1.6,0.5 -0.7,-0.4 -1.3,-0.7 -2,-0.9zM27.9,18.9c-0.4,-0.6 -0.9,-1.1 -1.4,-1.6 -0.6,-0.6 -1.2,-1.1 -1.8,-1.5 0.5,-0.1 0.9,-0.4 1,-0.4 0.2,-0.1 0.3,-0.3 0.4,-0.4 1.4,0.3 2.4,1.6 2.4,3.1 0,0.1 0,0.4 -0.1,0.4s-0.3,0.1 -0.5,0.4zM29.1,21.1c-0.2,-0.4 -0.3,-0.8 -0.6,-1.2 0,-0.2 -0.1,-0.3 -0.1,-0.5 -0.1,-0.2 0.1,-0.4 0.2,-0.4 0.2,-0.1 0.4,0.1 0.4,0.2 0.3,0.5 0.4,1.1 0.1,1.9z" fill="#FF000000"/>
</svg>
