<?xml version="1.0" encoding="UTF-8" standalone="no"?>
<svg xmlns="http://www.w3.org/2000/svg" viewBox="0 0 36.0 36.0">
  <path d="M24,10.8c0.5,0 0.9,0.1 1.3,0.2v-0.9c0,-0.4 -0.3,-0.7 -0.7,-0.7h-1.3c-0.4,0 -0.7,0.3 -0.7,0.7v0.9c0.4,-0.1 0.9,-0.2 1.4,-0.2zM12,10.8c0.5,0 1,0.1 1.4,0.3v-0.9c0,-0.4 -0.3,-0.7 -0.7,-0.7h-1.3c-0.4,0 -0.7,0.3 -0.7,0.7v0.8c0.4,-0.1 0.8,-0.2 1.3,-0.2z" fill="#edc963"/>
  <path d="M12,10.8c0.5,0 1,0.1 1.4,0.3v-0.9c0,-0.4 -0.3,-0.7 -0.7,-0.7h-1.3c-0.4,0 -0.7,0.3 -0.7,0.7v0.8c0.4,-0.1 0.8,-0.2 1.3,-0.2z" fill="#edc963"/>
  <path d="M28,14.3c-0.3,-2 -1.9,-3.5 -4,-3.5 -1.1,0 -2.2,0.5 -2.9,1.3h-6.2c-0.7,-0.8 -1.8,-1.3 -2.9,-1.3 -2,0 -3.7,1.5 -4,3.5l-1.6,9.4c-0.2,1.1 0.4,2.3 1.5,2.7 1.3,0.6 2.9,-0.1 3.3,-1.5l1.4,-4.2c0.4,0.3 0.9,0.5 1.5,0.5 0.7,0 1.4,-0.3 1.9,-0.8h4c0.5,0.5 1.1,0.8 1.9,0.8 0.6,0 1.1,-0.2 1.5,-0.5l1.4,4.2c0.5,1.4 2,2.1 3.3,1.5 1.1,-0.4 1.7,-1.6 1.5,-2.7L28,14.3z" fill="#454d58"/>
  <path d="M25.3,11v-0.8c-0.4,-0.2 -0.8,-0.3 -1.3,-0.3s-1,0.1 -1.4,0.3v0.8c0.4,-0.2 0.9,-0.3 1.4,-0.3 0.5,0.1 0.9,0.2 1.3,0.3zM13.4,11v-0.8c-0.4,-0.2 -0.9,-0.3 -1.4,-0.3 -0.5,0 -0.9,0.1 -1.3,0.2v0.9c0.4,-0.1 0.8,-0.2 1.3,-0.2s1,0.1 1.4,0.2z" fill="#e7b93e"/>
  <path d="M7.9,25.6c-0.8,-0.3 -1.4,-1.1 -1.5,-1.9 -0.2,1.1 0.4,2.3 1.5,2.7 1.3,0.6 2.9,-0.1 3.3,-1.5l0.3,-0.8c-0.5,1.3 -2.3,2 -3.6,1.5zM29.6,23.7c-0.1,0.8 -0.7,1.5 -1.5,1.9 -1.3,0.6 -3.1,-0.1 -3.6,-1.5l0.3,0.8c0.5,1.4 2,2.1 3.3,1.5 1.1,-0.4 1.7,-1.6 1.5,-2.7zM23.2,20.2c0,-0.1 -0.2,-0.2 -0.4,-0.1 -0.3,0.2 -0.5,0.3 -1,0.3 -0.7,0 -1.3,-0.3 -1.8,-0.7 0,0 -0.1,-0.1 -0.2,-0.1H16c-0.1,0 -0.1,0 -0.2,0.1 -0.5,0.4 -1.1,0.7 -1.8,0.7 -0.4,0 -0.7,-0.1 -1,-0.3 -0.1,-0.1 -0.3,0 -0.4,0.1l-0.2,0.5c0.4,0.3 0.9,0.5 1.5,0.5 0.7,0 1.4,-0.3 1.9,-0.8h4c0.5,0.5 1.1,0.8 1.9,0.8 0.6,0 1.1,-0.2 1.5,-0.5v-0.5z" fill="#3b434d"/>
  <path d="M14.2,18.7m-1.1,0a1.1,1.1 0,1 1,2.2 0a1.1,1.1 0,1 1,-2.2 0" fill="#dad8db"/>
  <path d="M21.8,18.7m-1.1,0a1.1,1.1 0,1 1,2.2 0a1.1,1.1 0,1 1,-2.2 0" fill="#dad8db"/>
  <path d="M14.2,18.9c-0.5,0 -0.9,-0.3 -1,-0.7 -0.1,0.1 -0.1,0.3 -0.1,0.4 0,0.6 0.5,1.1 1.1,1.1 0.6,0 1.1,-0.5 1.1,-1.1 0,-0.1 0,-0.3 -0.1,-0.4 -0.1,0.5 -0.5,0.7 -1,0.7zM21.8,18.9c-0.5,0 -0.9,-0.3 -1,-0.7 -0.1,0.1 -0.1,0.3 -0.1,0.4 0,0.6 0.5,1.1 1.1,1.1 0.6,0 1.1,-0.5 1.1,-1.1 0,-0.1 0,-0.3 -0.1,-0.4 -0.2,0.5 -0.6,0.7 -1,0.7z" fill="#c8c5c9"/>
  <path d="M13.2,14.1h-0.4v-0.4c0,-0.4 -0.3,-0.7 -0.7,-0.7 -0.4,0 -0.7,0.3 -0.7,0.7v0.4H11c-0.4,0 -0.7,0.3 -0.7,0.7 0,0.4 0.3,0.7 0.7,0.7h0.4v0.4c0,0.4 0.3,0.7 0.7,0.7s0.7,-0.3 0.7,-0.7v-0.4h0.4c0.4,0 0.7,-0.3 0.7,-0.7 0,-0.3 -0.3,-0.7 -0.7,-0.7z" fill="#b3e59f"/>
  <path d="M13.2,14.1h-0.4v-0.4c0,-0.4 -0.3,-0.7 -0.7,-0.7 -0.4,0 -0.7,0.3 -0.7,0.7v0.4H11c-0.4,0 -0.7,0.3 -0.7,0.7 0,0.4 0.3,0.7 0.7,0.7h0.4v0.4c0,0.4 0.3,0.7 0.7,0.7s0.7,-0.3 0.7,-0.7v-0.4h0.4c0.4,0 0.7,-0.3 0.7,-0.7 0,-0.3 -0.3,-0.7 -0.7,-0.7z" fill="#dad8db"/>
  <path d="M24.2,12.5c-0.4,0 -0.7,0.3 -0.7,0.7 0,0.4 0.3,0.7 0.7,0.7 0.4,0 0.7,-0.3 0.7,-0.7 0,-0.4 -0.3,-0.7 -0.7,-0.7z" fill="#bed8fb"/>
  <path d="M24.2,12.5c-0.4,0 -0.7,0.3 -0.7,0.7 0,0.4 0.3,0.7 0.7,0.7 0.4,0 0.7,-0.3 0.7,-0.7 0,-0.4 -0.3,-0.7 -0.7,-0.7z" fill="#b3e59f"/>
  <path d="M24.2,15.9c-0.4,0 -0.7,0.3 -0.7,0.7 0,0.4 0.3,0.7 0.7,0.7 0.4,0 0.7,-0.3 0.7,-0.7 0,-0.4 -0.3,-0.7 -0.7,-0.7z" fill="#bed8fb"/>
  <path d="M26.6,14.9c0,-0.4 -0.3,-0.7 -0.7,-0.7s-0.7,0.3 -0.7,0.7c0,0.4 0.3,0.7 0.7,0.7 0.4,0 0.7,-0.3 0.7,-0.7z" fill="#edc963"/>
  <path d="M23.2,14.9c0,-0.4 -0.3,-0.7 -0.7,-0.7 -0.4,0 -0.7,0.3 -0.7,0.7 0,0.4 0.3,0.7 0.7,0.7s0.7,-0.3 0.7,-0.7z" fill="#df667c"/>
  <path d="M14.9,12h6.2v0.6c0,0.5 -0.4,0.9 -0.9,0.9h-4.3c-0.5,0 -0.9,-0.4 -0.9,-0.9V12z" fill="#a6aec4"/>
  <path d="M20.2,12.8h-4.3c-0.4,0 -0.8,-0.3 -0.9,-0.7v0.6c0,0.5 0.4,0.9 0.9,0.9h4.3c0.5,0 0.9,-0.4 0.9,-0.9V12c-0.1,0.5 -0.5,0.8 -0.9,0.8z" fill="#959db0"/>
  <path d="M14.2,17.2c-0.8,0 -1.5,0.7 -1.5,1.5s0.7,1.5 1.5,1.5 1.5,-0.7 1.5,-1.5 -0.7,-1.5 -1.5,-1.5zM14.2,19.4c-0.4,0 -0.8,-0.3 -0.8,-0.8 0,-0.4 0.3,-0.8 0.8,-0.8 0.4,0 0.8,0.3 0.8,0.8s-0.4,0.8 -0.8,0.8zM20.3,18.7c0,0.8 0.7,1.5 1.5,1.5s1.5,-0.7 1.5,-1.5 -0.7,-1.5 -1.5,-1.5 -1.5,0.7 -1.5,1.5zM21.8,17.9c0.4,0 0.8,0.3 0.8,0.8 0,0.4 -0.3,0.8 -0.8,0.8 -0.4,0 -0.8,-0.3 -0.8,-0.8 0,-0.4 0.4,-0.8 0.8,-0.8z" fill="#FF000000"/>
  <path d="M30,23.6l-1.6,-9.5c-0.2,-1.6 -1.3,-2.9 -2.7,-3.4L25.7,10c0,-0.6 -0.5,-1.1 -1.1,-1.1h-1.3c-0.6,0 -1.1,0.5 -1.1,1.1v0.7c-0.5,0.2 -0.9,0.5 -1.3,0.9L15,11.6c-0.4,-0.4 -0.8,-0.7 -1.3,-0.9L13.7,10c0,-0.6 -0.5,-1.1 -1.1,-1.1h-1.3c-0.6,0 -1.1,0.5 -1.1,1.1v0.7c-1.4,0.6 -2.5,1.9 -2.7,3.4l-0.5,3c0,0.2 0.1,0.4 0.3,0.4 0.2,0 0.4,-0.1 0.4,-0.3l0.5,-3c0.2,-1.8 1.8,-3.2 3.6,-3.2 1,0 1.9,0.4 2.6,1v0.5c0,0.7 0.6,1.3 1.3,1.3h1.5c0.2,0 0.4,-0.2 0.4,-0.4s-0.2,-0.4 -0.4,-0.4h-1.5c-0.3,0 -0.6,-0.3 -0.6,-0.6v-0.3h5.5v0.3c0,0.3 -0.3,0.6 -0.6,0.6h-1.5c-0.2,0 -0.4,0.2 -0.4,0.4s0.2,0.4 0.4,0.4L20,13.8c0.7,0 1.3,-0.6 1.3,-1.3L21.3,12c0.7,-0.7 1.6,-1 2.6,-1 1.8,0 3.4,1.4 3.6,3.2l1.6,9.4c0.2,1 -0.4,1.9 -1.3,2.3 -0.6,0.2 -1.2,0.2 -1.7,0s-1,-0.7 -1.1,-1.3l-0.3,-1c-0.1,-0.2 -0.3,-0.3 -0.4,-0.2 -0.2,0.1 -0.3,0.3 -0.2,0.4l0.3,1c0.3,0.7 0.8,1.4 1.5,1.7 0.4,0.2 0.8,0.3 1.2,0.3 0.4,0 0.7,-0.1 1.1,-0.2 1.3,-0.4 2,-1.6 1.8,-3zM11,10.5v-0.4c0,-0.2 0.2,-0.4 0.4,-0.4h1.3c0.2,0 0.4,0.2 0.4,0.4v0.5c-0.3,-0.1 -0.7,-0.1 -1.1,-0.1 -0.4,-0.1 -0.7,0 -1,0zM23,10.6v-0.5c0,-0.2 0.2,-0.4 0.4,-0.4h1.3c0.2,0 0.4,0.2 0.4,0.4v0.4c-0.3,-0.1 -0.6,-0.1 -0.9,-0.1 -0.5,0 -0.9,0.1 -1.2,0.2z" fill="#FF000000"/>
  <path d="M24.3,22.5l-0.6,-1.9c0,-0.1 -0.1,-0.2 -0.2,-0.2s-0.2,0 -0.3,0.1c-0.4,0.3 -0.8,0.4 -1.3,0.4 -0.6,0 -1.2,-0.2 -1.6,-0.7 -0.1,-0.1 -0.2,-0.1 -0.3,-0.1h-4c-0.1,0 -0.2,0 -0.3,0.1 -0.4,0.4 -1,0.7 -1.6,0.7 -0.5,0 -0.9,-0.1 -1.3,-0.4 -0.1,-0.1 -0.2,-0.1 -0.3,-0.1 -0.1,0 -0.2,0.1 -0.2,0.2l-1.4,4.2c-0.2,0.6 -0.6,1 -1.1,1.3 -0.5,0.2 -1.2,0.3 -1.7,0 -0.9,-0.4 -1.5,-1.3 -1.3,-2.3l0.8,-5c0,-0.2 -0.1,-0.4 -0.3,-0.4 -0.2,0 -0.4,0.1 -0.4,0.3l-0.8,5c-0.2,1.3 0.5,2.6 1.7,3.1 0.3,0.1 0.7,0.2 1,0.2 0.4,0 0.8,-0.1 1.2,-0.3 0.7,-0.3 1.3,-0.9 1.5,-1.7l1.3,-3.7c0.4,0.2 0.9,0.3 1.3,0.3 0.8,0 1.5,-0.3 2,-0.8h3.7c0.5,0.5 1.2,0.8 2,0.8 0.5,0 0.9,-0.1 1.3,-0.3l0.5,1.4c0.1,0.2 0.3,0.3 0.4,0.2 0.3,0 0.4,-0.2 0.3,-0.4zM12,12.6c-0.6,0 -1.1,0.5 -1.1,1.1v0.1h-0.1c-0.6,0 -1.1,0.5 -1.1,1.1 0,0.6 0.5,1.1 1.1,1.1h0.1v0.1c0,0.6 0.5,1.1 1.1,1.1s1.1,-0.5 1.1,-1.1L13.1,16h0.1c0.6,0 1.1,-0.5 1.1,-1.1 0,-0.6 -0.5,-1.1 -1.1,-1.1h-0.1v-0.1c0,-0.6 -0.5,-1.1 -1.1,-1.1zM13.2,14.5c0.2,0 0.4,0.2 0.4,0.4s-0.2,0.4 -0.4,0.4h-0.4c-0.2,0 -0.4,0.2 -0.4,0.4v0.4c0,0.2 -0.2,0.4 -0.4,0.4s-0.4,-0.2 -0.4,-0.4v-0.4c0,-0.2 -0.2,-0.4 -0.4,-0.4h-0.4c-0.2,0 -0.4,-0.2 -0.4,-0.4s0.2,-0.4 0.4,-0.4h0.4c0.2,0 0.4,-0.2 0.4,-0.4v-0.4c0,-0.2 0.2,-0.4 0.4,-0.4s0.4,0.2 0.4,0.4v0.4c0,0.2 0.2,0.4 0.4,0.4h0.4zM24.3,12.1c-0.6,0 -1,0.5 -1,1s0.5,1 1,1 1,-0.5 1,-1 -0.5,-1 -1,-1zM24.3,13.5c-0.2,0 -0.3,-0.1 -0.3,-0.3s0.1,-0.3 0.3,-0.3 0.3,0.1 0.3,0.3 -0.2,0.3 -0.3,0.3zM24.3,15.6c-0.6,0 -1,0.5 -1,1 0,0.6 0.5,1 1,1s1,-0.5 1,-1 -0.5,-1 -1,-1zM24.3,16.9c-0.2,0 -0.3,-0.1 -0.3,-0.3 0,-0.2 0.1,-0.3 0.3,-0.3s0.3,0.1 0.3,0.3 -0.2,0.3 -0.3,0.3zM27,14.9c0,-0.6 -0.5,-1 -1,-1 -0.6,0 -1,0.5 -1,1 0,0.6 0.5,1 1,1s1,-0.4 1,-1zM25.7,14.9c0,-0.2 0.1,-0.3 0.3,-0.3s0.3,0.1 0.3,0.3c0,0.2 -0.1,0.3 -0.3,0.3s-0.3,-0.1 -0.3,-0.3zM21.5,14.9c0,0.6 0.5,1 1,1s1,-0.5 1,-1c0,-0.6 -0.5,-1 -1,-1s-1,0.4 -1,1zM22.8,14.9c0,0.2 -0.1,0.3 -0.3,0.3s-0.3,-0.1 -0.3,-0.3c0,-0.2 0.1,-0.3 0.3,-0.3 0.2,0 0.3,0.1 0.3,0.3zM17,16.3c0.2,0 0.4,-0.2 0.4,-0.4s-0.2,-0.4 -0.4,-0.4h-1.1c-0.2,0 -0.4,0.2 -0.4,0.4s0.2,0.4 0.4,0.4L17,16.3zM20.1,15.5L19,15.5c-0.2,0 -0.4,0.2 -0.4,0.4s0.2,0.4 0.4,0.4h1.1c0.2,0 0.4,-0.2 0.4,-0.4 -0.1,-0.2 -0.2,-0.4 -0.4,-0.4z" fill="#FF000000"/>
</svg>
